HIERARCHY
ROOT Hips
{
	OFFSET 0.000000 0.000000 0.000000
	CHANNELS 6 Xposition Yposition Zposition Zrotation Xrotation Yrotation
	JOINT Spine1
	{
		OFFSET 0.000000 -0.000045 277.694702
		CHANNELS 6 Xposition Yposition Zposition Zrotation Xrotation Yrotation
		JOINT Neck
		{
			OFFSET 0.000000 -0.000036 221.388000
			CHANNELS 6 Xposition Yposition Zposition Zrotation Xrotation Yrotation
			JOINT Head
			{
				OFFSET 0.000000 -18.163622 140.768005
				CHANNELS 6 Xposition Yposition Zposition Zrotation Xrotation Yrotation
				End Site
				{
					OFFSET 0.000000 -0.000029 181.635559
				}
			}
		}
		JOINT LeftShoulder
		{
			OFFSET 36.576698 4.801211 178.758972
			CHANNELS 6 Xposition Yposition Zposition Zrotation Xrotation Yrotation
			JOINT LeftArm
			{
				OFFSET 130.515991 0.000000 0.000000
				CHANNELS 6 Xposition Yposition Zposition Zrotation Xrotation Yrotation
				JOINT LeftForeArm
				{
					OFFSET 255.920990 0.000000 0.000000
					CHANNELS 6 Xposition Yposition Zposition Zrotation Xrotation Yrotation
					JOINT LeftHand
					{
						OFFSET 237.844971 0.000000 0.000000
						CHANNELS 6 Xposition Yposition Zposition Zrotation Xrotation Yrotation
						End Site
						{
							OFFSET 136.226685 0.000000 0.000000
						}
					}
				}
			}
		}
		JOINT RightShoulder
		{
			OFFSET -36.072102 4.801211 178.758972
			CHANNELS 6 Xposition Yposition Zposition Zrotation Xrotation Yrotation
			JOINT RightArm
			{
				OFFSET -130.515991 0.000000 0.000000
				CHANNELS 6 Xposition Yposition Zposition Zrotation Xrotation Yrotation
				JOINT RightForeArm
				{
					OFFSET -255.921005 0.000000 0.000000
					CHANNELS 6 Xposition Yposition Zposition Zrotation Xrotation Yrotation
					JOINT RightHand
					{
						OFFSET -237.845032 0.000000 0.000000
						CHANNELS 6 Xposition Yposition Zposition Zrotation Xrotation Yrotation
						End Site
						{
							OFFSET -136.226685 0.000000 0.000000
						}
					}
				}
			}
		}
	}
	JOINT LeftUpLeg
	{
		OFFSET 90.818001 0.000000 0.000000
		CHANNELS 6 Xposition Yposition Zposition Zrotation Xrotation Yrotation
		JOINT LeftLeg
		{
			OFFSET 0.000000 0.000062 -381.949005
			CHANNELS 6 Xposition Yposition Zposition Zrotation Xrotation Yrotation
			JOINT LeftFoot
			{
				OFFSET 0.000000 0.000065 -400.430023
				CHANNELS 6 Xposition Yposition Zposition Zrotation Xrotation Yrotation
				JOINT LeftToeBase
				{
					OFFSET 0.000000 -136.226974 -59.031677
					CHANNELS 6 Xposition Yposition Zposition Zrotation Xrotation Yrotation
					End Site
					{
						OFFSET 0.000000 -36.327118 0.000000
					}
				}
			}
		}
	}
	JOINT RightUpLeg
	{
		OFFSET -90.818001 0.000000 0.000000
		CHANNELS 6 Xposition Yposition Zposition Zrotation Xrotation Yrotation
		JOINT RightLeg
		{
			OFFSET 0.000000 0.000062 -381.949005
			CHANNELS 6 Xposition Yposition Zposition Zrotation Xrotation Yrotation
			JOINT RightFoot
			{
				OFFSET 0.000000 0.000065 -400.430023
				CHANNELS 6 Xposition Yposition Zposition Zrotation Xrotation Yrotation
				JOINT RightToeBase
				{
					OFFSET 0.000000 -136.226974 -59.031677
					CHANNELS 6 Xposition Yposition Zposition Zrotation Xrotation Yrotation
					End Site
					{
						OFFSET 0.000000 -36.327118 0.000000
					}
				}
			}
		}
	}
}
MOTION
Frames: 8
Frame Time: 0.041667
-71.653694 -131.147034 718.297424 -0.621536 16.850734 -1.078031 0.000004 -0.000066 277.694733 -4.371894 -14.000905 -4.844053 0.000015 -0.000048 221.388000 4.063626 5.328002 -3.195301 -0.000013 -18.163574 140.768005 4.935535 2.391736 4.583144 36.576698 4.801189 178.758942 0.170649 -6.841332 -22.066449 130.515930 -0.000031 0.000050 -8.387617 -10.447518 8.610932 255.921021 -0.000021 0.000018 0.194240 -9.993146 0.424082 237.844940 0.000004 -0.000003 16.999810 -10.040682 -0.318156 -36.072105 4.801204 178.758881 -7.495228 -1.451188 16.518913 -130.516052 -0.000031 0.000094 18.861875 13.143913 -11.274890 -255.921005 -0.000049 -0.000169 84.554060 42.759136 40.149737 -237.845093 -0.000054 0.000087 1.952955 8.378063 34.217622 90.818008 0.000015 0.000080 14.667841 -39.133460 -22.176398 -0.000024 0.000060 -381.948975 11.146832 41.459262 10.327483 -0.000018 0.000096 -400.430115 18.556036 -4.029687 7.018729 0.000003 -136.226944 -59.031673 0.000000 -0.000001 -0.000001 -90.818016 -0.000011 0.000050 9.911428 -28.436062 38.864295 -0.000011 0.000066 -381.949036 -14.174102 40.462051 -27.241766 0.000047 0.000119 -400.430023 -26.011944 -13.584492 -12.911099 -0.000000 -136.227020 -59.031681 -0.000001 0.000001 -0.000001 
-71.662354 -131.152145 718.256348 -0.616781 16.852524 -1.075629 -0.000009 -0.000028 277.694672 -4.372858 -13.997412 -4.838635 0.000000 -0.000060 221.388062 4.068103 5.334946 -3.195168 -0.000024 -18.163588 140.767960 4.938373 2.373750 4.564614 36.576714 4.801202 178.759033 0.170672 -6.836306 -22.072093 130.515945 -0.000024 -0.000067 -8.382042 -10.428524 8.624459 255.920959 -0.000014 -0.000033 0.178245 -10.004594 0.413867 237.845047 0.000007 0.000073 17.011945 -10.049040 -0.297473 -36.072113 4.801198 178.758911 -7.493949 -1.457597 16.515032 -130.515991 -0.000022 -0.000002 18.853830 13.079338 -11.284486 -255.920959 -0.000047 -0.000017 84.628462 42.743993 40.057434 -237.845032 -0.000011 0.000085 1.968205 8.412272 34.193133 90.817993 0.000000 0.000048 14.654886 -39.139559 -22.181241 -0.000001 0.000091 -381.949005 11.143398 41.469015 10.320566 -0.000002 0.000054 -400.430054 18.553553 -4.043218 7.042881 0.000012 -136.226929 -59.031670 0.000000 -0.000001 -0.000003 -90.818001 0.000004 0.000000 9.867378 -28.468645 38.838126 0.000012 0.000066 -381.949005 -14.139103 40.473085 -27.222158 0.000009 0.000108 -400.430084 -25.987594 -13.604806 -12.909081 0.000033 -136.226959 -59.031677 0.000002 -0.000000 -0.000001 
-71.687355 -131.129333 718.247681 -0.618042 16.856581 -1.069772 0.000006 -0.000036 277.694702 -4.377166 -13.995562 -4.844126 0.000013 -0.000010 221.388153 4.070793 5.373143 -3.125469 -0.000008 -18.163588 140.768066 4.922896 2.289234 4.441458 36.576698 4.801237 178.759094 0.162183 -6.840500 -22.068100 130.515930 -0.000025 0.000007 -8.366211 -10.368591 8.647942 255.921021 0.000027 0.000195 0.146819 -10.065313 0.390986 237.844971 0.000041 -0.000080 17.003201 -10.116035 -0.341312 -36.072102 4.801223 178.758987 -7.478200 -1.469867 16.544275 -130.515976 -0.000039 -0.000087 18.846112 13.030486 -11.335527 -255.920990 -0.000108 -0.000132 84.684128 42.739642 39.986748 -237.845093 0.000010 0.000097 1.962360 8.444444 34.195888 90.818016 0.000011 0.000017 14.643130 -39.148189 -22.192038 -0.000032 0.000043 -381.949005 11.161815 41.474200 10.308937 -0.000018 0.000087 -400.430145 18.545878 -4.056109 7.072225 0.000020 -136.226974 -59.031677 -0.000001 -0.000000 0.000001 -90.817993 -0.000002 -0.000008 9.896125 -28.452739 38.856427 0.000034 0.000039 -381.949097 -14.151870 40.468584 -27.259720 -0.000007 0.000035 -400.430054 -26.010796 -13.609584 -12.860603 0.000020 -136.226959 -59.031673 0.000000 -0.000002 0.000000 
-71.737358 -131.114578 718.236145 -0.611829 16.858647 -1.063546 0.000002 -0.000051 277.694611 -4.389354 -13.996169 -4.852169 0.000006 -0.000056 221.388016 4.075094 5.387784 -3.113970 0.000008 -18.163631 140.768188 4.923970 2.273814 4.420843 36.576706 4.801209 178.758957 0.163982 -6.837439 -22.063396 130.516022 -0.000021 0.000045 -8.372321 -10.325597 8.664833 255.920990 0.000017 -0.000046 0.139441 -10.103483 0.378489 237.845016 -0.000003 0.000029 17.022320 -10.155691 -0.351348 -36.072098 4.801206 178.759033 -7.484659 -1.457110 16.528477 -130.516022 -0.000055 0.000012 18.853624 13.031208 -11.312944 -255.921005 -0.000069 -0.000078 84.647805 42.736057 40.022757 -237.845169 0.000041 0.000121 1.967233 8.426694 34.188935 90.818008 0.000023 0.000021 14.617421 -39.153694 -22.211697 0.000014 0.000066 -381.948975 11.161939 41.477662 10.311398 0.000021 0.000048 -400.430084 18.558406 -4.041735 7.027526 0.000013 -136.226974 -59.031666 -0.000003 -0.000004 -0.000003 -90.818008 -0.000003 -0.000004 9.875429 -28.458046 38.846370 0.000027 0.000032 -381.949036 -14.151514 40.466436 -27.277098 0.000039 0.000058 -400.430023 -26.020494 -13.609604 -12.896873 -0.000013 -136.226974 -59.031677 0.000000 -0.000001 -0.000001 
-71.765450 -131.104858 718.220215 -0.610826 16.865035 -1.056294 0.000008 -0.000028 277.694611 -4.402847 -14.002564 -4.866025 0.000006 -0.000025 221.388000 4.071545 5.367133 -3.181205 -0.000005 -18.163633 140.768005 4.939028 2.343551 4.552134 36.576706 4.801219 178.758957 0.150649 -6.844648 -22.052458 130.515915 -0.000030 -0.000194 -8.357594 -10.295883 8.676684 255.921021 -0.000025 0.000030 0.130958 -10.130750 0.371529 237.844971 -0.000020 0.000078 17.027923 -10.181291 -0.340131 -36.072117 4.801218 178.759003 -7.458824 -1.475889 16.557318 -130.515976 -0.000002 -0.000104 18.849435 13.067219 -11.360257 -255.920959 -0.000052 -0.000003 84.605246 42.748429 40.070363 -237.845154 0.000154 0.000178 1.967862 8.420386 34.174746 90.818001 0.000008 -0.000053 14.592267 -39.164264 -22.231286 -0.000047 0.000037 -381.948914 11.189386 41.489175 10.294186 0.000013 0.000039 -400.430023 18.540506 -4.051601 7.072422 0.000010 -136.227005 -59.031677 -0.000001 -0.000000 -0.000001 -90.817993 0.000031 -0.000023 9.872512 -28.474360 38.843836 0.000057 0.000047 -381.949005 -14.086015 40.467921 -27.317207 -0.000007 0.000085 -400.430023 -26.048403 -13.603177 -12.910257 0.000044 -136.226944 -59.031673 0.000001 -0.000000 0.000001 
-71.810539 -131.098770 718.205811 -0.619739 16.867569 -1.043475 -0.000001 -0.000013 277.694611 -4.393879 -14.011586 -4.867182 0.000002 -0.000018 221.388107 4.077696 5.409096 -3.110528 -0.000017 -18.163654 140.768097 4.922628 2.278924 4.395403 36.576683 4.801217 178.759033 0.140296 -6.852058 -22.054872 130.515976 -0.000018 0.000117 -8.353904 -10.319710 8.687495 255.920959 -0.000036 -0.000091 0.135890 -10.127446 0.372663 237.845016 0.000031 -0.000048 17.055725 -10.180381 -0.355599 -36.072121 4.801208 178.759048 -7.461551 -1.458284 16.525025 -130.516022 0.000011 -0.000135 18.852565 13.084416 -11.332756 -255.921005 -0.000054 0.000040 84.549457 42.751605 40.124073 -237.845154 0.000128 0.000138 1.976279 8.407389 34.190523 90.818001 0.000023 -0.000034 14.577464 -39.167491 -22.257773 -0.000017 0.000117 -381.949066 11.159067 41.491418 10.317420 0.000013 0.000073 -400.429962 18.562415 -4.053646 7.083104 0.000039 -136.226959 -59.031673 0.000002 0.000000 -0.000002 -90.818016 0.000012 -0.000053 9.889728 -28.463784 38.833990 0.000019 0.000055 -381.949066 -14.108555 40.456030 -27.317027 0.000032 0.000070 -400.429932 -26.056434 -13.609009 -12.907511 0.000050 -136.226990 -59.031742 0.000002 0.000000 -0.000001 
-71.858597 -131.106873 718.184326 -0.618429 16.867499 -1.037252 -0.000005 -0.000013 277.694611 -4.403469 -14.018854 -4.881848 -0.000002 -0.000037 221.388016 4.072883 5.385097 -3.159425 -0.000021 -18.163662 140.767914 4.930636 2.370640 4.492396 36.576740 4.801207 178.759064 0.143660 -6.856005 -22.029874 130.515991 -0.000028 0.000055 -8.363859 -10.435303 8.682247 255.921005 -0.000010 -0.000045 0.160462 -10.088522 0.378994 237.844955 -0.000008 -0.000076 17.058720 -10.139661 -0.342786 -36.072094 4.801200 178.759033 -7.435799 -1.475962 16.557085 -130.516006 -0.000030 -0.000254 18.847654 13.152998 -11.384758 -255.920990 -0.000070 -0.000129 84.462836 42.778639 40.223910 -237.845016 -0.000040 0.000119 1.990029 8.397957 34.184485 90.817993 0.000015 -0.000051 14.561403 -39.169762 -22.273578 -0.000024 0.000114 -381.949066 11.183490 41.494844 10.305894 -0.000002 0.000016 -400.430054 18.562683 -4.040071 7.048106 -0.000014 -136.227036 -59.031673 -0.000002 -0.000001 -0.000001 -90.818008 0.000020 -0.000053 9.865886 -28.483065 38.816959 0.000004 0.000089 -381.948944 -14.077914 40.465712 -27.321580 -0.000030 0.000074 -400.430084 -26.048062 -13.615034 -12.899858 0.000021 -136.226944 -59.031677 0.000004 -0.000001 -0.000000 
-71.880943 -131.105316 718.182373 -0.627403 16.869010 -1.032713 0.000004 -0.000028 277.694641 -4.391931 -14.024316 -4.873131 0.000011 -0.000033 221.388123 4.070240 5.380557 -3.166057 0.000011 -18.163513 140.767853 4.925806 2.404175 4.475145 36.576702 4.801209 178.758972 0.149311 -6.856400 -22.034880 130.515961 -0.000017 -0.000068 -8.368058 -10.507415 8.699187 255.921021 0.000016 0.000110 0.157254 -10.107364 0.380053 237.844986 0.000097 -0.000120 17.065356 -10.167800 -0.405693 -36.072098 4.801213 178.759079 -7.417645 -1.482792 16.543483 -130.516037 -0.000009 0.000048 18.837469 13.159315 -11.394402 -255.920944 -0.000060 0.000043 84.433883 42.789622 40.241900 -237.845108 0.000080 0.000136 1.995882 8.415466 34.185431 90.818008 0.000008 -0.000048 14.554611 -39.170841 -22.283615 0.000014 0.000041 -381.948975 11.119424 41.495776 10.340755 0.000013 0.000045 -400.429932 18.594152 -4.053922 7.102622 0.000037 -136.226913 -59.031673 0.000001 -0.000000 -0.000001 -90.818001 0.000010 -0.000084 9.896551 -28.471683 38.831606 0.000004 0.000070 -381.948944 -14.078715 40.468099 -27.347582 0.000024 0.000077 -400.430023 -26.054315 -13.611455 -12.861097 0.000043 -136.226959 -59.031673 0.000004 -0.000001 0.000001 
